<svg xmlns="http://www.w3.org/2000/svg" width="90" height="36" fill="none" viewBox="0 0 90 36">
    <path fill="#0072BA" fill-rule="evenodd" d="M36.5 26.14c.361.097.709.243 1.032.433.25.154.49.323.717.508.165.127.317.271.452.43l.135.176-.895.898-.11-.142c-.102-.115-.211-.224-.326-.326-.168-.154-.353-.29-.55-.403-.243-.132-.5-.235-.767-.307-.321-.1-.656-.15-.993-.148-.882 0-1.727.35-2.35.974-.624.623-.974 1.469-.974 2.35 0 .882.35 1.728.973 2.351.624.624 1.47.974 2.351.974.34.002.678-.046 1.003-.145.278-.08.544-.199.79-.353.194-.125.38-.261.557-.41.13-.104.25-.22.36-.347l.098-.153.9.898c-.033.049-.085.116-.153.196-.36.374-.764.7-1.205.972-.328.183-.676.327-1.037.428-.813.235-1.674.253-2.496.052-.823-.202-1.578-.615-2.19-1.2-.43-.428-.77-.937-1.002-1.497-.233-.56-.352-1.16-.352-1.767 0-.606.12-1.207.352-1.767.232-.56.572-1.069 1.002-1.497.443-.441.972-.787 1.554-1.017.581-.23 1.203-.339 1.828-.321.437-.006.873.048 1.295.16zm-22.334-.053h3.786c.38-.011.757.053 1.11.19.354.135.677.341.95.604.266.251.476.556.617.893.14.337.21.7.202 1.066-.004.352-.072.7-.203 1.027-.102.277-.254.533-.45.753-.164.17-.34.33-.525.477-.136.114-.287.208-.45.28l-.18.083 2.047 3.577h-1.537l-1.916-3.454h-2.048v3.454h-1.403v-8.95zm4.816 1.701c-.134-.135-.295-.242-.472-.315-.177-.072-.367-.108-.558-.106h-2.368v2.94h2.368c.29-.003.574-.091.815-.253.24-.163.429-.393.54-.661.111-.268.142-.564.087-.849-.055-.285-.193-.548-.396-.756h-.016zm-13.237-1.37c-.55-.227-1.141-.34-1.736-.33H.875v8.949h3.134c.595.008 1.186-.104 1.737-.331.55-.228 1.048-.565 1.464-.992.423-.409.76-.899.99-1.44.23-.542.348-1.125.348-1.713 0-.589-.118-1.171-.348-1.713-.23-.542-.567-1.032-.99-1.441-.416-.426-.914-.763-1.465-.99zM2.268 33.76v-6.393l1.728.012c.414-.007.824.07 1.206.23.381.158.726.394 1.012.693.584.61.91 1.423.91 2.268 0 .845-.326 1.657-.91 2.268-.286.298-.63.534-1.012.693-.382.159-.792.237-1.206.23H2.268zm9.534-7.672h-1.403v8.952h1.403v-8.952zm17.575 8.952v-1.28h-5.053v-2.746h3.903v-1.282H24.33v-2.365h4.92v-1.28H22.92v8.953h6.458zm16.997-7.673v-1.28h-6.772v1.28h2.685v7.673h1.405v-7.673h2.682z" clip-rule="evenodd"/>
    <path fill="#E40034" fill-rule="evenodd" d="M43.212 1.46l.005.005c1.627 3.61 6.982 5.97 12.915 2.837 6.28-3.315 11.025 1.774 11.025 1.774C63.374.91 59.103-.579 53.477 2.211c-5.868 2.903-10.095-.606-10.26-.746l-.002-.005h-.003zm2.894 16.46c-.266.052-.537.08-.808.082-.157.005-.312-.026-.456-.089-.141-.065-.26-.172-.338-.307-.101-.171-.172-.359-.209-.554-.05-.284-.073-.572-.068-.86V10.04h2.685l.265-2.066h-2.95V4.88H42.09l-.766 3.11-1.771.596v1.47h1.771v6.458c-.004.523.047 1.044.151 1.556.086.426.268.827.532 1.172.274.333.63.59 1.033.744.528.19 1.088.28 1.649.261.519-.007 1.032-.111 1.513-.307.567-.23 1.097-.54 1.574-.923l-.667-1.414c-.327.131-.664.234-1.009.307l.006.01zm-8.515-3.777c.234.189.441.41.615.655.193.272.342.573.443.892.121.38.178.776.169 1.175.013.52-.13 1.033-.41 1.473-.276.433-.646.8-1.082 1.073-.456.3-.956.531-1.482.683-.572.15-1.161.227-1.753.227-.514.001-1.027-.03-1.538-.092-.46-.057-.915-.16-1.356-.308-.43-.143-.843-.336-1.23-.575-.402-.258-.768-.568-1.088-.922l1.583-1.907c1.095 1.212 2.291 1.827 3.521 1.827.259.002.517-.024.77-.08.218-.05.427-.138.614-.262.171-.12.312-.278.413-.46.105-.206.155-.435.147-.665.003-.175-.04-.348-.126-.501-.075-.15-.18-.283-.308-.391-.136-.118-.284-.221-.442-.307-.16-.082-.324-.154-.492-.216-.308-.126-.615-.23-.923-.335-.308-.104-.615-.218-.923-.344l-.615-.231c-.264-.097-.522-.212-.771-.345-.27-.138-.526-.3-.766-.482-.262-.187-.497-.408-.698-.658-.205-.272-.37-.572-.492-.89-.133-.365-.198-.751-.191-1.14-.01-.497.125-.986.39-1.406.267-.407.62-.751 1.034-1.008.453-.283.95-.491 1.47-.615.549-.138 1.113-.208 1.679-.21.85-.01 1.697.1 2.516.327.755.216 1.46.583 2.07 1.079l-1.317 2.03c-.215-.217-.44-.422-.677-.615-.215-.179-.445-.337-.688-.474-.259-.132-.531-.235-.812-.307-.324-.068-.654-.1-.984-.096-.274-.007-.547.03-.81.11-.2.065-.386.17-.544.308-.136.118-.241.267-.307.434-.067.163-.101.338-.102.514-.003.185.053.367.16.52.1.147.227.275.372.378.162.113.336.207.52.28.194.076.39.15.59.215.113.039.22.078.327.116h.001c.202.072.399.142.614.213.329.107.636.215.944.332l.569.209c.236.087.466.19.688.308.249.134.485.29.708.464zm-9.983 4.105c-.11.02-.22.03-.332.034-.14.006-.28-.014-.412-.061-.11-.04-.206-.113-.274-.21-.078-.126-.13-.267-.15-.415-.032-.213-.047-.43-.043-.645v-5.379c.015-.591-.127-1.176-.412-1.694-.27-.475-.65-.88-1.107-1.178-.488-.309-1.023-.535-1.584-.668-.604-.147-1.224-.222-1.845-.221-.936-.005-1.865.158-2.744.48-.83.301-1.595.758-2.254 1.347l1.538 1.737c.29-.281.599-.544.922-.787.252-.187.52-.35.8-.49.242-.12.5-.207.766-.257.264-.046.532-.068.8-.068.312-.008.624.036.922.13.25.074.48.205.673.38.207.19.366.427.465.69.115.324.166.667.15 1.011v.437c-.614 0-1.248.024-1.845.077-.583.05-1.162.14-1.734.267-.52.12-1.026.293-1.51.517-.44.21-.844.492-1.193.833-.34.342-.61.75-.79 1.197-.2.516-.296 1.067-.287 1.62-.01.493.074.984.246 1.446.154.394.396.747.708 1.033.32.278.695.488 1.1.615.473.143.965.214 1.458.21.331 0 .662-.021.99-.066.344-.042.682-.115 1.012-.218.35-.115.688-.267 1.006-.452.351-.204.677-.449.972-.729.041.222.127.433.25.622.123.19.283.352.47.48.416.266.904.399 1.399.38.276.004.552-.017.824-.064.231-.037.46-.091.683-.163.203-.071.402-.153.596-.246.188-.105.37-.206.545-.308l-.308-1.282c-.13.03-.264.05-.402.07l-.069.01v-.021zm-4.12-.88c-.228.162-.469.304-.72.425-.224.11-.46.197-.701.259-.22.064-.446.108-.674.132-.218.018-.43.03-.642.03-.214.003-.428-.025-.634-.082-.188-.052-.359-.15-.498-.286-.142-.147-.247-.325-.308-.52-.087-.263-.13-.538-.129-.815-.003-.363.06-.724.188-1.064.144-.34.378-.633.676-.849.402-.272.849-.47 1.32-.584.695-.167 1.407-.26 2.122-.28v3.635zm26.14-9.379h2.894v12.03h-2.894V7.99zm26.512.508c-.274-.117-.523-.222-.738-.308-.214-.085-.432-.157-.655-.215-.232-.06-.467-.107-.704-.139-.246-.024-.532-.04-.858-.04-.68-.006-1.356.085-2.008.271-.574.166-1.112.438-1.584.803-.435.347-.787.787-1.03 1.288-.263.548-.393 1.15-.379 1.756-.002.35.028.7.093 1.043.059.302.156.596.289.873.138.274.31.53.513.76.23.259.488.492.769.695-.273.104-.535.234-.784.387-.23.142-.443.31-.634.502-.172.18-.315.388-.421.615-.099.228-.148.474-.145.722-.009.322.068.64.222.923.14.243.324.459.541.637.201.163.421.303.655.415.228.11.418.206.575.307-.307.163-.587.342-.867.532-.285.182-.544.403-.769.655-.223.252-.407.536-.544.843-.143.342-.212.711-.203 1.082 0 .355.108.701.307.994.236.325.547.588.908.765.488.242 1.007.413 1.543.508.742.127 1.493.187 2.245.178.468 0 .957-.024 1.464-.058.503-.036 1.003-.11 1.495-.222.475-.1.939-.243 1.387-.43.423-.166.812-.407 1.15-.71.333-.294.603-.652.793-1.052.211-.456.316-.953.308-1.455.01-.369-.068-.735-.228-1.067-.147-.3-.357-.565-.615-.778-.273-.22-.576-.4-.9-.535-.358-.144-.725-.264-1.099-.357-.384-.095-.778-.178-1.184-.243l-1.187-.2c-.187-.03-.386-.066-.6-.105l-.153-.027-.123-.022c-.231-.041-.46-.082-.692-.132-.274-.058-.544-.12-.803-.19-.234-.06-.463-.136-.686-.228-.169-.064-.329-.15-.476-.255-.056-.03-.103-.075-.136-.129-.033-.054-.052-.116-.055-.179-.006-.218.056-.433.178-.615.114-.169.25-.322.403-.455.345.153.706.264 1.077.332.537.091 1.081.134 1.626.126.503-.004 1-.1 1.467-.283.512-.183.988-.454 1.406-.802.434-.36.793-.802 1.055-1.301.28-.539.422-1.14.412-1.747.012-.503-.06-1.005-.212-1.485-.106-.342-.271-.661-.49-.944l2.073.335.48-2.153c-.549.001-1.097.037-1.642.108-.62.075-1.23.206-1.827.39l-.003.016zm-5.957 13.088c.03-.171.078-.34.142-.501.07-.167.155-.326.255-.477.11-.157.243-.295.397-.409.384.04.8.096 1.251.166.452.07.966.172 1.566.308.375.08.725.16 1.042.236.287.065.567.156.837.271.202.079.388.196.547.345.062.057.112.126.147.203.034.078.052.161.053.246 0 .274-.072.544-.21.78-.139.237-.338.433-.577.567-.356.194-.742.328-1.141.396-.58.111-1.17.161-1.76.151-.326.002-.651-.049-.962-.15-.293-.1-.571-.238-.827-.413-.23-.154-.43-.35-.588-.578-.14-.194-.218-.425-.224-.664.002-.16.02-.32.052-.477zm4.696-8.61c-.033.302-.12.595-.258.867-.128.25-.322.463-.56.615-.302.16-.642.237-.984.221-.354.01-.705-.068-1.02-.228-.27-.15-.502-.36-.678-.615-.18-.271-.309-.574-.38-.892-.079-.348-.117-.704-.115-1.06 0-.788.182-1.381.554-1.772.182-.196.404-.35.651-.453.248-.102.515-.149.782-.137.283-.019.566.023.831.123.266.1.506.255.707.455.352.383.529 1.005.529 1.864-.003.338-.023.675-.059 1.011zm14.374 1.823c.193.274.344.576.449.895l-.003-.003c.125.379.184.776.175 1.175.01.522-.135 1.035-.415 1.476-.278.432-.648.797-1.083 1.07-.466.302-.976.529-1.513.673-.574.153-1.165.23-1.759.228-.505 0-1.01-.03-1.513-.092-.459-.057-.911-.16-1.35-.308-.431-.142-.844-.335-1.23-.575-.405-.257-.773-.567-1.095-.922l1.58-1.904c1.102 1.208 2.277 1.823 3.522 1.823.26.003.519-.024.772-.08.218-.05.426-.137.615-.258.168-.123.308-.282.41-.464.103-.206.154-.434.15-.664.003-.176-.04-.349-.126-.502-.08-.146-.188-.275-.317-.381-.135-.12-.284-.223-.443-.307-.157-.082-.32-.154-.486-.216-.307-.126-.6-.23-.907-.335-.308-.105-.615-.218-.923-.345l-.615-.23c-.265-.096-.523-.211-.772-.345-.269-.137-.525-.299-.765-.482-.263-.184-.498-.405-.698-.655-.21-.268-.376-.567-.492-.886-.138-.364-.203-.752-.194-1.141-.008-.496.128-.984.39-1.405.271-.408.625-.753 1.04-1.012.451-.283.946-.49 1.464-.615.55-.139 1.117-.209 1.685-.21.849-.01 1.695.1 2.513.327.755.214 1.458.582 2.066 1.079l-1.313 2.03c-.234-.23-.458-.43-.674-.615-.215-.18-.448-.34-.695-.474-.255-.132-.524-.235-.802-.307-.327-.067-.66-.098-.994-.096-.271-.006-.542.03-.802.108-.203.066-.39.17-.554.307-.133.12-.238.268-.307.434-.066.163-.099.338-.096.514-.003.184.05.366.154.52.1.147.226.275.372.377.162.114.336.208.52.28.19.077.39.151.593.216.308.114.619.221.941.329.324.107.631.215.939.332l.572.209c.236.086.466.189.688.307.249.137.486.292.71.465.234.19.441.41.616.655zM64.946 8.924c-.407-.371-.885-.656-1.406-.836-.56-.197-1.15-.295-1.743-.29-.368-.002-.734.038-1.092.117-.334.072-.66.175-.975.308-.288.127-.567.275-.833.443-.228.145-.444.309-.646.489 0-.082-.018-.163-.036-.246l-.014-.062-.024-.131c-.013-.07-.025-.14-.04-.2l-.01-.041c-.022-.09-.045-.185-.06-.267-.018-.075-.04-.148-.069-.219h-2.73c.075.376.117.758.126 1.141 0 .206.005.392.01.558.004.135.008.256.008.365v9.973h2.897v-9.309c.217-.118.442-.22.674-.307.242-.09.486-.167.732-.231.241-.07.488-.12.738-.15.22-.037.441-.054.664-.053.321-.005.64.041.947.138.264.091.503.243.698.443.203.233.348.51.425.809.105.401.154.815.144 1.23v7.43h2.903v-7.977c.01-.614-.11-1.223-.35-1.787-.216-.508-.537-.963-.942-1.338h.004zm-53.772.317V2.558h3.06V20.02h-3.06v-8.343H3.941v8.343H.875V2.558h3.066v6.683h7.233z" clip-rule="evenodd"/>
</svg>
