<svg xmlns="http://www.w3.org/2000/svg" width="198" height="32" fill="none" viewBox="0 0 198 32">
    <path fill="#E40034" fill-rule="evenodd" d="M54.283.814s5.487 4.762 13.16.96C74.66-1.798 80.145.108 84.978 6.731c0 0-6.087-6.524-14.136-2.274C63.23 8.485 56.36 5.446 54.283.814zm3.712 21.107c-.342.066-.69.1-1.038.105-.201.005-.401-.035-.586-.115-.179-.082-.33-.216-.433-.384-.128-.22-.218-.462-.267-.712-.064-.364-.093-.734-.087-1.103v-7.875h3.44l.343-2.65h-3.782v-3.99h-2.742l-.973 3.99-2.27.766v1.884h2.27v8.284c-.005.67.06 1.338.192 1.995.11.546.345 1.06.685 1.502.35.429.806.759 1.322.958.678.243 1.394.356 2.113.334.665-.005 1.324-.137 1.94-.387.727-.289 1.407-.684 2.02-1.171l-.855-1.81c-.42.163-.852.29-1.292.379zm-10.936-4.846c.305.243.575.527.802.843v-.003c.252.348.448.734.58 1.143.158.487.233.997.22 1.509.016.668-.167 1.326-.527 1.89-.36.57-.847 1.052-1.422 1.406-.608.377-1.27.657-1.964.83-.735.193-1.492.291-2.252.292-.652 0-1.303-.037-1.95-.115-.59-.071-1.172-.2-1.737-.387-.548-.185-1.073-.432-1.565-.738-.514-.326-.983-.717-1.397-1.165l2.03-2.44c1.415 1.555 2.918 2.338 4.513 2.338.331.003.662-.032.985-.102.279-.064.544-.177.784-.331.218-.157.398-.36.527-.595.136-.263.202-.556.192-.852.003-.226-.054-.448-.164-.645-.102-.193-.244-.363-.416-.498-.175-.148-.365-.276-.566-.384-.201-.103-.408-.195-.62-.273-.393-.164-.771-.297-1.162-.43-.39-.134-.78-.28-1.168-.444l-.787-.31c-.331-.125-.654-.273-.966-.443-.346-.177-.676-.384-.985-.62-.332-.24-.628-.527-.88-.851-.258-.35-.467-.733-.62-1.14-.169-.47-.252-.966-.244-1.466-.015-.636.16-1.263.501-1.8.343-.522.796-.964 1.326-1.294.582-.36 1.218-.624 1.884-.781.709-.18 1.437-.269 2.168-.267 1.089-.013 2.173.127 3.222.416.969.28 1.872.75 2.655 1.384l-1.688 2.603c-.274-.28-.564-.546-.867-.793-.276-.234-.573-.441-.886-.62-.331-.164-.68-.291-1.038-.378-.416-.086-.84-.128-1.264-.124-.35-.008-.698.04-1.032.143-.257.08-.496.211-.7.387-.18.148-.32.338-.409.554-.087.21-.132.434-.133.66-.01.234.056.465.186.66.128.19.29.356.477.49.206.145.43.265.666.356.248.1.502.192.759.276.259.095.513.182.768.27l.437.151.335.117c.292.101.584.203.873.31l.728.27c.303.112.598.245.883.397.318.173.622.371.908.594zM34.277 22.34c-.142.024-.285.039-.428.043-.179.008-.358-.018-.527-.077-.14-.052-.263-.145-.35-.267-.103-.16-.17-.343-.195-.532-.04-.276-.059-.555-.053-.834v-6.89c.02-.757-.164-1.506-.532-2.168-.345-.61-.83-1.129-1.416-1.512-.625-.403-1.313-.7-2.036-.877-1.952-.469-4-.352-5.886.335-1.063.385-2.043.97-2.887 1.722l1.958 2.23c.367-.358.755-.695 1.162-1.01.323-.236.668-.443 1.028-.619.31-.154.64-.266.979-.331.339-.058.682-.087 1.025-.087.397-.01.793.047 1.172.167.337.093.647.265.904.502.265.244.469.546.595.883.154.416.226.858.21 1.301v.558c-.805 0-1.601.03-2.379.096-.745.065-1.486.178-2.218.338-.667.154-1.317.375-1.94.66-.563.27-1.079.632-1.527 1.068-.434.444-.776.971-1.003 1.55-.258.661-.383 1.368-.369 2.078-.016.634.09 1.264.31 1.859.193.508.503.965.905 1.332.409.363.889.637 1.409.806.603.18 1.23.27 1.859.266.43-.005.86-.038 1.285-.1.443-.063.878-.166 1.302-.309.448-.15.88-.345 1.288-.582.448-.262.863-.574 1.24-.93.112.574.446 1.08.93 1.41.533.34 1.157.51 1.79.486.352.004.705-.023 1.053-.08.3-.051.595-.126.883-.224.26-.088.516-.192.765-.31l.047-.026c.223-.124.442-.246.65-.38l-.393-1.644c-.155.032-.32.057-.484.081l-.12.018h-.007zM29 21.218c-.294.208-.605.39-.93.545-.282.137-.576.246-.88.325-.282.083-.571.14-.864.167-.279.028-.552.04-.821.04-.275.004-.55-.032-.815-.105-.244-.059-.468-.18-.65-.353-.189-.185-.33-.414-.41-.666-.102-.338-.15-.69-.142-1.044-.003-.465.079-.927.242-1.363.182-.435.481-.812.864-1.087.515-.35 1.088-.604 1.692-.75.89-.214 1.799-.334 2.714-.357v4.648zm33.507-12.03h3.712v15.425h-3.712V9.188zm33.992.647l-.305-.126c-.234-.097-.448-.187-.64-.26-.275-.11-.556-.203-.843-.277-.296-.078-.597-.138-.901-.18-.31-.03-.682-.052-1.097-.052-.871-.008-1.74.11-2.578.35-.734.211-1.423.56-2.029 1.026-.557.446-1.008 1.011-1.32 1.654-.339.701-.505 1.473-.486 2.252-.005.448.035.895.118 1.335.141.781.497 1.508 1.029 2.098.295.331.625.63.985.889-.351.133-.688.299-1.007.496-.293.178-.566.39-.812.629-.22.232-.403.499-.539.79-.127.293-.19.61-.186.929-.014.418.085.832.285 1.199.18.312.416.589.694.818.257.21.54.388.84.53.31.142.536.266.737.38-.383.208-.755.436-1.115.682-.36.237-.685.523-.967.849-.286.323-.522.688-.7 1.081-.182.44-.27.913-.257 1.388-.007.448.118.89.36 1.267.3.42.702.757 1.167.982.631.31 1.303.527 1.995.648.95.16 1.912.235 2.875.226.601 0 1.24-.031 1.878-.075.644-.046 1.284-.14 1.914-.282.61-.13 1.206-.315 1.782-.554.541-.215 1.04-.524 1.474-.914.427-.374.772-.833 1.013-1.348.268-.582.4-1.218.388-1.858.012-.473-.088-.943-.292-1.37-.188-.384-.455-.724-.783-.997-.351-.283-.74-.514-1.156-.688-.459-.182-.928-.334-1.406-.455-.493-.124-.998-.23-1.519-.31-.504-.078-.996-.165-1.475-.25l-.046-.007c-.24-.036-.479-.08-.736-.126l-.23-.042-.185-.032c-.285-.05-.572-.102-.862-.163-.353-.074-.697-.158-1.026-.248-.3-.072-.595-.17-.88-.29-.22-.083-.428-.194-.62-.33-.067-.036-.125-.09-.168-.154-.042-.065-.067-.14-.073-.217-.005-.275.074-.545.226-.775.147-.22.323-.42.524-.594.441.194.904.336 1.378.424.69.12 1.389.174 2.088.164.644-.005 1.282-.129 1.881-.365.656-.234 1.265-.58 1.8-1.026.557-.462 1.018-1.03 1.357-1.67.357-.691.536-1.461.523-2.24.016-.644-.075-1.287-.27-1.902-.133-.438-.343-.849-.619-1.214l2.658.43.62-2.772c-.704.003-1.408.05-2.107.14-.793.097-1.577.264-2.342.498l-.012.01zM88.863 26.62c.038-.22.099-.436.18-.644.09-.216.2-.423.328-.62.14-.2.312-.375.508-.52.493.05 1.026.118 1.605.21.58.094 1.24.22 2.008.39.48.103.93.205 1.335.31.368.082.728.198 1.075.345.26.1.497.251.7.443.081.072.146.16.19.259.044.098.067.206.067.314.003.353-.089.7-.267 1.005-.177.304-.434.556-.743.727-.454.252-.947.428-1.459.52-.744.142-1.5.208-2.258.195-.421.002-.84-.065-1.24-.198-.376-.126-.734-.303-1.062-.527-.296-.197-.552-.45-.753-.743-.178-.25-.278-.546-.285-.852.002-.207.025-.412.071-.614zm6.02-11.044c-.043.388-.154.766-.329 1.115-.167.318-.416.586-.722.775-.386.208-.822.306-1.26.285-.455.013-.905-.087-1.31-.291-.35-.195-.648-.469-.871-.8-.235-.348-.402-.736-.493-1.146-.094-.447-.136-.903-.127-1.36 0-1.01.232-1.769.71-2.27.232-.253.517-.45.835-.582.317-.13.659-.19 1.001-.175.364-.025.728.028 1.07.156.34.128.65.327.907.585.452.492.675 1.288.675 2.391-.003.44-.032.88-.086 1.317zm18.43 2.342c.25.35.445.737.576 1.146v-.006c.16.486.236.995.226 1.506.012.67-.173 1.328-.533 1.893-.355.556-.829 1.027-1.388 1.378-.608.378-1.272.658-1.967.83-.737.195-1.496.293-2.258.292-.648 0-1.296-.038-1.94-.115-.587-.071-1.166-.2-1.728-.387-.544-.184-1.064-.432-1.549-.737-.518-.325-.991-.717-1.407-1.165l2.026-2.442c1.416 1.556 2.919 2.342 4.514 2.342.334.003.666-.032.991-.105.279-.064.544-.176.784-.331.217-.157.396-.36.524-.595.135-.263.202-.556.195-.852.005-.225-.051-.448-.161-.644-.122-.194-.283-.358-.474-.484-.175-.147-.365-.275-.567-.38-.199-.108-.407-.2-.62-.277-.393-.164-.777-.297-1.164-.43-.388-.133-.781-.279-1.172-.443-.216-.093-.477-.192-.786-.31-.331-.127-.653-.275-.964-.443-.345-.177-.674-.384-.982-.62-.336-.24-.634-.53-.886-.858-.264-.343-.473-.726-.62-1.134-.175-.468-.259-.965-.247-1.465-.01-.635.163-1.26.498-1.8.348-.523.803-.965 1.336-1.298.579-.36 1.213-.622 1.877-.778.709-.177 1.438-.267 2.169-.266 1.088-.014 2.173.127 3.222.418.973.28 1.878.755 2.661 1.397l-1.686 2.603c-.297-.3-.585-.558-.861-.793s-.574-.442-.889-.62c-.328-.165-.674-.292-1.032-.378-.418-.089-.845-.131-1.273-.127-.348-.007-.695.04-1.028.14-.26.083-.501.216-.71.39-.176.151-.314.341-.406.554-.085.21-.127.434-.124.66-.008.234.056.464.183.66.126.193.288.359.477.49.207.145.431.265.666.356.245.1.499.192.759.276.267.1.539.193.814.287.13.044.26.088.391.134l.208.072c.337.117.668.232.994.356l.735.269c.304.11.6.243.886.397.317.174.621.373.907.594.305.244.574.527.803.843zm-31.166-7.544c-.52-.476-1.133-.84-1.8-1.068-.718-.255-1.475-.382-2.237-.375-.47-.002-.94.049-1.4.151-.425.094-.84.228-1.24.4-.374.165-.734.36-1.078.583-.291.184-.568.391-.827.62 0-.1-.021-.198-.043-.301l-.022-.103c-.02-.145-.047-.288-.083-.43-.035-.137-.066-.27-.09-.384-.022-.095-.051-.189-.087-.28h-3.5c.094.482.148.97.16 1.46 0 .267.007.508.013.722.005.171.009.325.009.461v12.795h3.718v-11.94c.28-.147.568-.277.864-.39.31-.111.62-.21.93-.31.31-.086.627-.15.947-.192.282-.045.567-.066.852-.065.412-.008.822.052 1.215.177.34.115.647.31.895.57.26.298.446.652.545 1.034.134.514.195 1.044.183 1.574v9.542h3.718V14.402c.013-.787-.14-1.569-.45-2.293-.268-.657-.675-1.248-1.192-1.735zm-68.943.419v-8.57h3.925v22.39h-3.925V13.915H3.93v10.698H0V2.224h3.931v8.569h9.273z" clip-rule="evenodd"/>
    <path fill="#0072BA" fill-rule="evenodd" d="M180.537 9.114c.625.166 1.224.417 1.781.747.431.264.845.556 1.239.873.285.22.544.468.775.744l.238.31-1.549 1.549-.189-.242c-.171-.203-.355-.394-.551-.573-.29-.27-.608-.506-.948-.707-.418-.231-.861-.415-1.32-.548-.556-.172-1.135-.258-1.716-.254-.755-.008-1.504.135-2.203.42-.699.284-1.335.705-1.87 1.238-.534.533-.957 1.167-1.244 1.866-.287.698-.432 1.446-.427 2.201-.008.756.136 1.505.421 2.204.286.7.708 1.335 1.242 1.869s1.169.956 1.868 1.242c.699.286 1.448.43 2.203.423.586.003 1.169-.083 1.729-.254.483-.141.943-.35 1.366-.62.334-.214.653-.45.958-.703.222-.182.429-.382.619-.598l.174-.27 1.549 1.55c-.082.117-.17.231-.264.34-.247.262-.51.508-.787.738-.403.346-.835.657-1.291.929-.563.317-1.162.565-1.785.737-1.402.404-2.885.434-4.303.088-1.417-.347-2.719-1.059-3.777-2.064-.759-.725-1.359-1.6-1.763-2.569-.404-.969-.602-2.01-.582-3.06-.02-1.05.179-2.091.582-3.06.404-.968 1.004-1.842 1.763-2.566.764-.757 1.672-1.35 2.671-1.747.999-.396 2.067-.586 3.141-.558.762.003 1.519.112 2.25.325zm-38.506-.093h6.506c.654-.02 1.305.09 1.915.326.61.235 1.167.59 1.638 1.043.458.434.82.96 1.063 1.541.242.582.361 1.209.347 1.84 0 .605-.116 1.206-.341 1.768-.171.48-.434.92-.774 1.298-.28.298-.582.574-.902.828-.235.197-.497.36-.777.486l-.31.14 3.538 6.17h-2.633l-3.318-5.957h-3.529v5.958h-2.423V9.022zm8.303 2.934c-.235-.238-.516-.425-.827-.55-.31-.124-.642-.184-.976-.175h-4.077v5.068h4.077c.335.008.667-.053.978-.178.31-.125.592-.311.829-.548.236-.237.422-.52.547-.83.124-.31.185-.643.177-.978.007-.335-.053-.668-.179-.98-.125-.31-.312-.592-.549-.83zm-22.82-2.36c-.95-.393-1.969-.588-2.996-.574h-5.403v15.44h5.403c1.027.015 2.047-.18 2.996-.574.949-.393 1.808-.976 2.525-1.712.729-.705 1.309-1.55 1.704-2.483.396-.934.6-1.938.6-2.952s-.204-2.018-.6-2.952c-.395-.934-.975-1.779-1.704-2.484-.717-.735-1.576-1.317-2.525-1.71zm-5.976 12.655V11.23h2.993c.712-.012 1.42.124 2.077.399.658.275 1.251.684 1.742 1.2.513.511.917 1.121 1.187 1.793.271.672.402 1.392.387 2.116.014.726-.12 1.447-.392 2.119-.273.672-.679 1.283-1.194 1.794-.492.516-1.085.925-1.742 1.2-.658.275-1.365.41-2.078.399h-2.98zM137.957 9.02h-2.422v15.44h2.422V9.022zm30.299 15.44V22.25h-8.709v-4.734h6.729v-2.209h-6.729V11.23h8.483V9.021h-10.902v15.44h11.128zm29.311-13.231V9.021H185.89v2.209h4.625v13.232h2.423V11.23h4.629z" clip-rule="evenodd"/>
</svg>
